<mxfile host="app.diagrams.net" modified="2024-06-03T12:01:41.208Z" agent="Mozilla/5.0 (Windows NT 10.0; Win64; x64) AppleWebKit/537.36 (KHTML, like Gecko) Chrome/121.0.0.0 Safari/537.36" etag="-ZdQK_tBcf606KEi3JQo" version="24.4.13" type="device">
  <diagram name="Página-1" id="yADrwSFaYpPm7iIRflgv">
    <mxGraphModel dx="2049" dy="1117" grid="1" gridSize="10" guides="1" tooltips="1" connect="1" arrows="1" fold="1" page="1" pageScale="1" pageWidth="827" pageHeight="1169" math="0" shadow="0">
      <root>
        <mxCell id="0" />
        <mxCell id="1" parent="0" />
        <mxCell id="hCP1LDk-JaAnfwMAVC_l-1" value="" style="group" vertex="1" connectable="0" parent="1">
          <mxGeometry x="160" y="80" width="320" height="560" as="geometry" />
        </mxCell>
        <mxCell id="hCP1LDk-JaAnfwMAVC_l-2" value="" style="rounded=1;whiteSpace=wrap;html=1;fillColor=#f5f5f5;gradientColor=#b3b3b3;strokeColor=#666666;container=1;" vertex="1" parent="hCP1LDk-JaAnfwMAVC_l-1">
          <mxGeometry width="320" height="550.8493771234429" as="geometry" />
        </mxCell>
        <mxCell id="hCP1LDk-JaAnfwMAVC_l-3" value="André&amp;nbsp; =&amp;nbsp; 52pç por hr" style="text;html=1;align=center;verticalAlign=middle;resizable=0;points=[];autosize=1;strokeColor=none;fillColor=none;" vertex="1" parent="hCP1LDk-JaAnfwMAVC_l-2">
          <mxGeometry x="30" y="280.09707167125066" width="140" height="30" as="geometry" />
        </mxCell>
        <mxCell id="hCP1LDk-JaAnfwMAVC_l-4" value="Miguel&amp;nbsp; =&amp;nbsp; 63pç por hr" style="text;html=1;align=center;verticalAlign=middle;resizable=0;points=[];autosize=1;strokeColor=none;fillColor=none;" vertex="1" parent="hCP1LDk-JaAnfwMAVC_l-2">
          <mxGeometry x="30" y="234.9077495550882" width="140" height="30" as="geometry" />
        </mxCell>
        <mxCell id="hCP1LDk-JaAnfwMAVC_l-5" value="Carlos&amp;nbsp; =&amp;nbsp; 55pç por hr" style="text;html=1;align=center;verticalAlign=middle;resizable=0;points=[];autosize=1;strokeColor=none;fillColor=none;" vertex="1" parent="hCP1LDk-JaAnfwMAVC_l-2">
          <mxGeometry x="31" y="189.84630318718655" width="140" height="30" as="geometry" />
        </mxCell>
        <mxCell id="hCP1LDk-JaAnfwMAVC_l-6" value="Pedro =&amp;nbsp; 60pç por hr" style="text;html=1;align=center;verticalAlign=middle;resizable=0;points=[];autosize=1;strokeColor=none;fillColor=none;" vertex="1" parent="hCP1LDk-JaAnfwMAVC_l-2">
          <mxGeometry x="35" y="142.63064229089147" width="130" height="30" as="geometry" />
        </mxCell>
        <mxCell id="hCP1LDk-JaAnfwMAVC_l-7" value="João&amp;nbsp; =&amp;nbsp; 50pç por hr" style="text;html=1;align=center;verticalAlign=middle;resizable=0;points=[];autosize=1;strokeColor=none;fillColor=none;" vertex="1" parent="hCP1LDk-JaAnfwMAVC_l-2">
          <mxGeometry x="35" y="98.3659602006148" width="130" height="30" as="geometry" />
        </mxCell>
        <mxCell id="hCP1LDk-JaAnfwMAVC_l-8" value="&lt;font style=&quot;font-size: 18px;&quot;&gt;Bordado&amp;nbsp;&lt;/font&gt;" style="text;html=1;align=center;verticalAlign=middle;resizable=0;points=[];autosize=1;strokeColor=none;fillColor=none;" vertex="1" parent="hCP1LDk-JaAnfwMAVC_l-2">
          <mxGeometry x="110" y="39.34638408024592" width="100" height="40" as="geometry" />
        </mxCell>
        <mxCell id="hCP1LDk-JaAnfwMAVC_l-9" value="?" style="rounded=1;whiteSpace=wrap;html=1;fillColor=#B0B0B0;strokeColor=#36393d;shadow=1;" vertex="1" parent="hCP1LDk-JaAnfwMAVC_l-2">
          <mxGeometry x="85" y="413.13703284258213" width="140" height="39.34638408024592" as="geometry" />
        </mxCell>
        <mxCell id="hCP1LDk-JaAnfwMAVC_l-10" value="Quanto tempo 1.300 pç" style="rounded=1;whiteSpace=wrap;html=1;fillColor=#B0B0B0;strokeColor=#36393d;shadow=1;" vertex="1" parent="hCP1LDk-JaAnfwMAVC_l-2">
          <mxGeometry x="85" y="354.11745672221326" width="140" height="39.34638408024592" as="geometry" />
        </mxCell>
        <mxCell id="hCP1LDk-JaAnfwMAVC_l-11" value="Voltar" style="rounded=1;whiteSpace=wrap;html=1;fillColor=#B0B0B0;container=0;" vertex="1" parent="hCP1LDk-JaAnfwMAVC_l-2">
          <mxGeometry x="84.12" y="470" width="140.88" height="40" as="geometry" />
        </mxCell>
        <mxCell id="hCP1LDk-JaAnfwMAVC_l-12" value="" style="rounded=1;whiteSpace=wrap;html=1;fillColor=#f5f5f5;gradientColor=#b3b3b3;strokeColor=#666666;" vertex="1" parent="1">
          <mxGeometry x="580" y="195" width="560" height="320" as="geometry" />
        </mxCell>
        <mxCell id="hCP1LDk-JaAnfwMAVC_l-13" value="&lt;font style=&quot;font-size: 18px;&quot;&gt;Bordado&amp;nbsp;&lt;/font&gt;" style="text;html=1;align=center;verticalAlign=middle;resizable=0;points=[];autosize=1;strokeColor=none;fillColor=none;" vertex="1" parent="1">
          <mxGeometry x="800" y="239.99638408024592" width="100" height="40" as="geometry" />
        </mxCell>
        <mxCell id="hCP1LDk-JaAnfwMAVC_l-14" value="João&amp;nbsp; =&amp;nbsp; 50pç por hr" style="text;html=1;align=center;verticalAlign=middle;resizable=0;points=[];autosize=1;strokeColor=none;fillColor=none;" vertex="1" parent="1">
          <mxGeometry x="630" y="299.9959602006148" width="130" height="30" as="geometry" />
        </mxCell>
        <mxCell id="hCP1LDk-JaAnfwMAVC_l-15" value="Pedro =&amp;nbsp; 60pç por hr" style="text;html=1;align=center;verticalAlign=middle;resizable=0;points=[];autosize=1;strokeColor=none;fillColor=none;" vertex="1" parent="1">
          <mxGeometry x="630" y="340.0006422908915" width="130" height="30" as="geometry" />
        </mxCell>
        <mxCell id="hCP1LDk-JaAnfwMAVC_l-16" value="Carlos&amp;nbsp; =&amp;nbsp; 55pç por hr" style="text;html=1;align=center;verticalAlign=middle;resizable=0;points=[];autosize=1;strokeColor=none;fillColor=none;" vertex="1" parent="1">
          <mxGeometry x="629" y="379.9963031871865" width="140" height="30" as="geometry" />
        </mxCell>
        <mxCell id="hCP1LDk-JaAnfwMAVC_l-17" value="Miguel&amp;nbsp; =&amp;nbsp; 63pç por hr" style="text;html=1;align=center;verticalAlign=middle;resizable=0;points=[];autosize=1;strokeColor=none;fillColor=none;" vertex="1" parent="1">
          <mxGeometry x="880" y="299.9977495550882" width="140" height="30" as="geometry" />
        </mxCell>
        <mxCell id="hCP1LDk-JaAnfwMAVC_l-18" value="André&amp;nbsp; =&amp;nbsp; 52pç por hr" style="text;html=1;align=center;verticalAlign=middle;resizable=0;points=[];autosize=1;strokeColor=none;fillColor=none;" vertex="1" parent="1">
          <mxGeometry x="880" y="344.99707167125064" width="140" height="30" as="geometry" />
        </mxCell>
        <mxCell id="hCP1LDk-JaAnfwMAVC_l-19" value="Quanto tempo 1.300 pç" style="rounded=1;whiteSpace=wrap;html=1;fillColor=#B0B0B0;strokeColor=#36393d;shadow=1;" vertex="1" parent="1">
          <mxGeometry x="660" y="449.30745672221326" width="140" height="39.34638408024592" as="geometry" />
        </mxCell>
        <mxCell id="hCP1LDk-JaAnfwMAVC_l-20" value="?" style="rounded=1;whiteSpace=wrap;html=1;fillColor=#B0B0B0;strokeColor=#36393d;shadow=1;" vertex="1" parent="1">
          <mxGeometry x="885" y="399" width="130" height="40" as="geometry" />
        </mxCell>
        <mxCell id="hCP1LDk-JaAnfwMAVC_l-21" value="Voltar" style="rounded=1;whiteSpace=wrap;html=1;fillColor=#B0B0B0;container=0;" vertex="1" parent="1">
          <mxGeometry x="884.1176470588236" y="450.00262524942025" width="131.76470588235293" height="38.6560966402416" as="geometry" />
        </mxCell>
        <mxCell id="hCP1LDk-JaAnfwMAVC_l-24" value="" style="edgeStyle=orthogonalEdgeStyle;rounded=0;orthogonalLoop=1;jettySize=auto;html=1;" edge="1" parent="1" source="hCP1LDk-JaAnfwMAVC_l-22" target="hCP1LDk-JaAnfwMAVC_l-23">
          <mxGeometry relative="1" as="geometry" />
        </mxCell>
        <mxCell id="hCP1LDk-JaAnfwMAVC_l-22" value="Início" style="ellipse;whiteSpace=wrap;html=1;" vertex="1" parent="1">
          <mxGeometry x="1420" y="80" width="120" height="80" as="geometry" />
        </mxCell>
        <mxCell id="hCP1LDk-JaAnfwMAVC_l-26" value="" style="edgeStyle=orthogonalEdgeStyle;rounded=0;orthogonalLoop=1;jettySize=auto;html=1;" edge="1" parent="1" source="hCP1LDk-JaAnfwMAVC_l-23" target="hCP1LDk-JaAnfwMAVC_l-25">
          <mxGeometry relative="1" as="geometry" />
        </mxCell>
        <mxCell id="hCP1LDk-JaAnfwMAVC_l-23" value="Bordado" style="rounded=0;whiteSpace=wrap;html=1;" vertex="1" parent="1">
          <mxGeometry x="1420" y="210" width="120" height="60" as="geometry" />
        </mxCell>
        <mxCell id="hCP1LDk-JaAnfwMAVC_l-28" value="" style="edgeStyle=orthogonalEdgeStyle;rounded=0;orthogonalLoop=1;jettySize=auto;html=1;" edge="1" parent="1" source="hCP1LDk-JaAnfwMAVC_l-25" target="hCP1LDk-JaAnfwMAVC_l-27">
          <mxGeometry relative="1" as="geometry" />
        </mxCell>
        <mxCell id="hCP1LDk-JaAnfwMAVC_l-25" value="João = 50pç&lt;div&gt;por hora&lt;/div&gt;" style="rounded=0;whiteSpace=wrap;html=1;" vertex="1" parent="1">
          <mxGeometry x="1600" y="210" width="120" height="60" as="geometry" />
        </mxCell>
        <mxCell id="hCP1LDk-JaAnfwMAVC_l-30" value="" style="edgeStyle=orthogonalEdgeStyle;rounded=0;orthogonalLoop=1;jettySize=auto;html=1;" edge="1" parent="1" source="hCP1LDk-JaAnfwMAVC_l-27" target="hCP1LDk-JaAnfwMAVC_l-29">
          <mxGeometry relative="1" as="geometry" />
        </mxCell>
        <mxCell id="hCP1LDk-JaAnfwMAVC_l-27" value="Pedro = 60pç&lt;div&gt;por hora&lt;/div&gt;" style="rounded=0;whiteSpace=wrap;html=1;" vertex="1" parent="1">
          <mxGeometry x="1600" y="310" width="120" height="60" as="geometry" />
        </mxCell>
        <mxCell id="hCP1LDk-JaAnfwMAVC_l-32" value="" style="edgeStyle=orthogonalEdgeStyle;rounded=0;orthogonalLoop=1;jettySize=auto;html=1;" edge="1" parent="1" source="hCP1LDk-JaAnfwMAVC_l-29" target="hCP1LDk-JaAnfwMAVC_l-31">
          <mxGeometry relative="1" as="geometry" />
        </mxCell>
        <mxCell id="hCP1LDk-JaAnfwMAVC_l-29" value="Carlos = 55pç&lt;div&gt;por hora&lt;/div&gt;" style="rounded=0;whiteSpace=wrap;html=1;" vertex="1" parent="1">
          <mxGeometry x="1600" y="410" width="120" height="60" as="geometry" />
        </mxCell>
        <mxCell id="hCP1LDk-JaAnfwMAVC_l-34" value="" style="edgeStyle=orthogonalEdgeStyle;rounded=0;orthogonalLoop=1;jettySize=auto;html=1;" edge="1" parent="1" source="hCP1LDk-JaAnfwMAVC_l-31" target="hCP1LDk-JaAnfwMAVC_l-33">
          <mxGeometry relative="1" as="geometry" />
        </mxCell>
        <mxCell id="hCP1LDk-JaAnfwMAVC_l-31" value="Miguel = 63pç&lt;div&gt;por hora&lt;/div&gt;" style="rounded=0;whiteSpace=wrap;html=1;" vertex="1" parent="1">
          <mxGeometry x="1600" y="510" width="120" height="60" as="geometry" />
        </mxCell>
        <mxCell id="hCP1LDk-JaAnfwMAVC_l-36" value="" style="edgeStyle=orthogonalEdgeStyle;rounded=0;orthogonalLoop=1;jettySize=auto;html=1;" edge="1" parent="1" source="hCP1LDk-JaAnfwMAVC_l-33" target="hCP1LDk-JaAnfwMAVC_l-35">
          <mxGeometry relative="1" as="geometry" />
        </mxCell>
        <mxCell id="hCP1LDk-JaAnfwMAVC_l-33" value="André = 52pç&lt;div&gt;por hora&lt;/div&gt;" style="rounded=0;whiteSpace=wrap;html=1;" vertex="1" parent="1">
          <mxGeometry x="1600" y="610" width="120" height="60" as="geometry" />
        </mxCell>
        <mxCell id="hCP1LDk-JaAnfwMAVC_l-39" value="" style="edgeStyle=orthogonalEdgeStyle;rounded=0;orthogonalLoop=1;jettySize=auto;html=1;" edge="1" parent="1" source="hCP1LDk-JaAnfwMAVC_l-35" target="hCP1LDk-JaAnfwMAVC_l-38">
          <mxGeometry relative="1" as="geometry" />
        </mxCell>
        <mxCell id="hCP1LDk-JaAnfwMAVC_l-41" value="SIM" style="edgeLabel;html=1;align=center;verticalAlign=middle;resizable=0;points=[];" vertex="1" connectable="0" parent="hCP1LDk-JaAnfwMAVC_l-39">
          <mxGeometry x="-0.2" y="1" relative="1" as="geometry">
            <mxPoint as="offset" />
          </mxGeometry>
        </mxCell>
        <mxCell id="hCP1LDk-JaAnfwMAVC_l-35" value="Está Correto?" style="rhombus;whiteSpace=wrap;html=1;" vertex="1" parent="1">
          <mxGeometry x="1602.5" y="720" width="115" height="110" as="geometry" />
        </mxCell>
        <mxCell id="hCP1LDk-JaAnfwMAVC_l-37" value="" style="endArrow=classic;html=1;rounded=0;exitX=0;exitY=0.5;exitDx=0;exitDy=0;entryX=0.492;entryY=1.117;entryDx=0;entryDy=0;entryPerimeter=0;" edge="1" parent="1" source="hCP1LDk-JaAnfwMAVC_l-35" target="hCP1LDk-JaAnfwMAVC_l-23">
          <mxGeometry width="50" height="50" relative="1" as="geometry">
            <mxPoint x="1210" y="550" as="sourcePoint" />
            <mxPoint x="1260" y="500" as="targetPoint" />
            <Array as="points">
              <mxPoint x="1479" y="775" />
            </Array>
          </mxGeometry>
        </mxCell>
        <mxCell id="hCP1LDk-JaAnfwMAVC_l-40" value="NÂO" style="edgeLabel;html=1;align=center;verticalAlign=middle;resizable=0;points=[];" vertex="1" connectable="0" parent="hCP1LDk-JaAnfwMAVC_l-37">
          <mxGeometry x="-0.815" y="1" relative="1" as="geometry">
            <mxPoint as="offset" />
          </mxGeometry>
        </mxCell>
        <mxCell id="hCP1LDk-JaAnfwMAVC_l-43" value="" style="edgeStyle=orthogonalEdgeStyle;rounded=0;orthogonalLoop=1;jettySize=auto;html=1;" edge="1" parent="1" source="hCP1LDk-JaAnfwMAVC_l-38" target="hCP1LDk-JaAnfwMAVC_l-42">
          <mxGeometry relative="1" as="geometry" />
        </mxCell>
        <mxCell id="hCP1LDk-JaAnfwMAVC_l-38" value="Quanto Tempo&lt;div&gt;1.300pç&lt;/div&gt;" style="rounded=0;whiteSpace=wrap;html=1;" vertex="1" parent="1">
          <mxGeometry x="1600" y="890" width="120" height="60" as="geometry" />
        </mxCell>
        <mxCell id="hCP1LDk-JaAnfwMAVC_l-45" value="" style="edgeStyle=orthogonalEdgeStyle;rounded=0;orthogonalLoop=1;jettySize=auto;html=1;" edge="1" parent="1" source="hCP1LDk-JaAnfwMAVC_l-42" target="hCP1LDk-JaAnfwMAVC_l-44">
          <mxGeometry relative="1" as="geometry" />
        </mxCell>
        <mxCell id="hCP1LDk-JaAnfwMAVC_l-42" value="?" style="rounded=0;whiteSpace=wrap;html=1;" vertex="1" parent="1">
          <mxGeometry x="1600" y="1000" width="120" height="60" as="geometry" />
        </mxCell>
        <mxCell id="hCP1LDk-JaAnfwMAVC_l-44" value="Voltar" style="ellipse;whiteSpace=wrap;html=1;" vertex="1" parent="1">
          <mxGeometry x="1600" y="1110" width="120" height="80" as="geometry" />
        </mxCell>
        <mxCell id="hCP1LDk-JaAnfwMAVC_l-46" value="" style="endArrow=classic;html=1;rounded=0;exitX=1;exitY=0.5;exitDx=0;exitDy=0;entryX=1;entryY=0.5;entryDx=0;entryDy=0;" edge="1" parent="1" source="hCP1LDk-JaAnfwMAVC_l-44" target="hCP1LDk-JaAnfwMAVC_l-22">
          <mxGeometry width="50" height="50" relative="1" as="geometry">
            <mxPoint x="1210" y="1130" as="sourcePoint" />
            <mxPoint x="1770" y="50" as="targetPoint" />
            <Array as="points">
              <mxPoint x="1840" y="1150" />
              <mxPoint x="1840" y="120" />
            </Array>
          </mxGeometry>
        </mxCell>
      </root>
    </mxGraphModel>
  </diagram>
</mxfile>
